<svg width="50" height="14" viewBox="0 0 50 14" fill="none" xmlns="http://www.w3.org/2000/svg">
<path fill-rule="evenodd" clip-rule="evenodd" d="M49.3738 10.416C48.7523 10.7786 48.7318 10.8384 49.0142 11.4653C49.5618 12.6818 49.4343 13.0809 48.403 13.3752C47.2234 13.7116 45.2899 13.3431 44.1701 12.5682C43.746 12.2748 42.7708 11.6344 42.0027 11.1453L40.6062 10.2558C16.0678 10.262 29.1008 10.2465 -1.42214e-07 10.2465L-1.6643e-07 9.69254L-1.90645e-07 9.13855L19.201 9.13855L26.8437 9.13855L27.8171 7.2683C29.3602 4.30337 31.9217 2.02516 35.0127 0.868438C36.4716 0.32243 36.7786 0.368524 36.5901 1.10577C36.254 2.42004 34.7352 4.95619 33.5158 6.239C32.5803 7.22316 31.7308 8.31409 30.2297 9.13235L37.9552 9.13545L40.5654 9.13855L41.7495 8.42967C42.4009 8.03989 43.2747 7.44424 43.6911 7.10609C45.3741 5.74019 49.1117 5.43372 49.2925 6.64695C49.3335 6.92195 49.2022 7.46153 49.0007 7.84622C48.7991 8.2309 48.6609 8.55975 48.6934 8.57681C50.1996 9.36812 50.3718 9.83348 49.3738 10.416ZM44.0854 9.23649C44.8819 8.73968 46.5207 8.58124 47.5425 8.90233C49.2423 9.43659 49.1215 10.0061 47.2052 10.494C46.3552 10.7105 45.9258 10.7072 45.0657 10.4781C43.6024 10.0879 43.3112 9.71935 44.0854 9.23649ZM47.0683 11.366C47.8059 11.2082 47.9835 11.2433 48.1751 11.5841C48.6595 12.4456 48.4681 12.6843 47.2978 12.6792C46.0361 12.6736 44.5472 12.0975 43.8647 11.351L43.3992 10.8417L43.9811 11.0024C45.6686 11.468 46.2642 11.538 47.0683 11.366ZM43.8647 8.03413C44.5472 7.28758 46.0361 6.71143 47.2978 6.70589C48.2002 6.7019 48.402 6.77237 48.3964 7.08881C48.3806 7.94815 47.9956 8.21739 47.066 8.01862C46.2644 7.84711 45.6672 7.91757 43.9811 8.38269L43.3992 8.54335L43.8647 8.03413ZM31.0223 4.1538C32.1361 3.11031 34.6473 1.60436 35.2734 1.60436C35.6581 1.60436 35.5957 1.79847 34.6922 3.41079C34.2378 4.2216 33.402 5.34641 32.8343 5.91015C31.8198 6.9184 29.853 8.25218 29.3812 8.25218C29.249 8.25218 30.0697 7.36358 31.2053 6.27755C32.7687 4.78201 33.2312 4.2072 33.1111 3.90871C32.9803 3.58452 32.5632 3.88367 30.7507 5.60213C29.5397 6.75021 28.5491 7.60955 28.5491 7.51161C28.5491 7.05069 29.9268 5.18044 31.0223 4.1538Z" fill="#383838"/>
</svg>
