<svg width="50" height="14" viewBox="0 0 50 14" fill="none" xmlns="http://www.w3.org/2000/svg">
<path fill-rule="evenodd" clip-rule="evenodd" d="M0.62622 10.416C1.24767 10.7786 1.26816 10.8384 0.985828 11.4653C0.438158 12.6818 0.565705 13.0809 1.59704 13.3752C2.77664 13.7116 4.71013 13.3431 5.82991 12.5682C6.25399 12.2748 7.22923 11.6344 7.99731 11.1453L9.39384 10.2558C33.9322 10.262 20.8992 10.2465 50 10.2465L50 9.69254L50 9.13855L30.799 9.13855L23.1563 9.13855L22.1829 7.2683C20.6398 4.30337 18.0783 2.02516 14.9873 0.868438C13.5284 0.32243 13.2214 0.368524 13.4099 1.10577C13.746 2.42004 15.2648 4.95619 16.4842 6.239C17.4197 7.22316 18.2692 8.31409 19.7703 9.13235L12.0448 9.13545L9.43457 9.13855L8.25055 8.42967C7.59907 8.03989 6.72531 7.44424 6.30892 7.10609C4.62587 5.74019 0.888301 5.43372 0.707451 6.64695C0.666486 6.92195 0.797763 7.46153 0.999328 7.84622C1.20089 8.2309 1.33915 8.55975 1.30656 8.57681C-0.199591 9.36812 -0.37183 9.83348 0.62622 10.416ZM5.91463 9.23649C5.11815 8.73968 3.47932 8.58124 2.45753 8.90233C0.757729 9.43659 0.878526 10.0061 2.79479 10.494C3.64481 10.7105 4.07424 10.7072 4.93427 10.4781C6.39759 10.0879 6.68877 9.71935 5.91463 9.23649ZM2.93165 11.366C2.19405 11.2082 2.01646 11.2433 1.82491 11.5841C1.34054 12.4456 1.53187 12.6843 2.70216 12.6792C3.96392 12.6736 5.45285 12.0975 6.13528 11.351L6.60079 10.8417L6.0189 11.0024C4.33144 11.468 3.73582 11.538 2.93165 11.366ZM6.13528 8.03413C5.45285 7.28758 3.96392 6.71143 2.70216 6.70589C1.79977 6.7019 1.59797 6.77237 1.60356 7.08881C1.61938 7.94815 2.00436 8.21739 2.93398 8.01862C3.73559 7.84711 4.33283 7.91757 6.0189 8.38269L6.60079 8.54335L6.13528 8.03413ZM18.9777 4.1538C17.8639 3.11031 15.3527 1.60436 14.7266 1.60436C14.3419 1.60436 14.4043 1.79847 15.3078 3.41079C15.7622 4.2216 16.598 5.34641 17.1657 5.91015C18.1802 6.9184 20.147 8.25218 20.6188 8.25218C20.751 8.25218 19.9303 7.36358 18.7947 6.27755C17.2313 4.78201 16.7688 4.2072 16.8889 3.90871C17.0197 3.58452 17.4368 3.88367 19.2493 5.60213C20.4603 6.75021 21.4509 7.60955 21.4509 7.51161C21.4509 7.05069 20.0732 5.18044 18.9777 4.1538Z" fill="#383838"/>
</svg>
